<?xml version="1.0" encoding="UTF-8"?>
<svg width="122px" height="76px" viewBox="0 0 122 76" version="1.1" xmlns="http://www.w3.org/2000/svg" xmlns:xlink="http://www.w3.org/1999/xlink">
    <!-- Generator: Sketch 50.2 (55047) - http://www.bohemiancoding.com/sketch -->
    <title>选择图片组合样式_2</title>
    <desc>Created with Sketch.</desc>
    <defs></defs>
    <g id="页面装修-" stroke="none" stroke-width="1" fill="none" fill-rule="evenodd">
        <g id="选择图片组合式样2" transform="translate(-1268.000000, -222.000000)">
            <g id="轮播缩略图-copy_export" transform="translate(1268.000000, 222.000000)">
                <g id="轮播缩略图-copy">
                    <rect id="Rectangle-2" fill="#F5F5F5" x="1.13686838e-13" y="0" width="122" height="37"></rect>
                    <text id="1" font-family="PingFangSC-Regular, PingFang SC" font-size="8" font-weight="normal" fill="#999999" fill-opacity="0.9">
                        <tspan x="115.709677" y="10">1</tspan>
                    </text>
                    <rect id="Rectangle-2-Copy" fill="#F5F5F5" x="1.13686838e-13" y="39" width="122" height="37"></rect>
                    <text id="2" font-family="PingFangSC-Regular, PingFang SC" font-size="8" font-weight="normal" fill="#999999" fill-opacity="0.9">
                        <tspan x="114.677419" y="49">2</tspan>
                    </text>
                    <g id="Group-3" transform="translate(49.645161, 10.000000)">
                        <rect id="Rectangle-11" fill="#D9D9D9" x="0" y="0" width="22.7096774" height="17" rx="2"></rect>
                        <ellipse id="Oval-2" fill="#FFFFFF" cx="8.77419355" cy="5.5" rx="1.5483871" ry="1.5"></ellipse>
                        <path d="M9.29032258,11 L5.16129032,11 L8.25806452,8.5 L10.228739,10.0909091 L13.4193548,7 L17.5483871,11 L9.29032258,11 Z" id="Combined-Shape" fill="#FFFFFF"></path>
                    </g>
                    <g id="Group-3-Copy" transform="translate(49.645161, 49.000000)">
                        <rect id="Rectangle-11" fill="#D9D9D9" x="0" y="0" width="22.7096774" height="17" rx="2"></rect>
                        <ellipse id="Oval-2" fill="#FFFFFF" cx="8.77419355" cy="5.5" rx="1.5483871" ry="1.5"></ellipse>
                        <path d="M9.29032258,11 L5.16129032,11 L8.25806452,8.5 L10.228739,10.0909091 L13.4193548,7 L17.5483871,11 L9.29032258,11 Z" id="Combined-Shape" fill="#FFFFFF"></path>
                    </g>
                </g>
            </g>
        </g>
    </g>
</svg>