<?xml version="1.0" encoding="UTF-8"?>
<svg width="122px" height="76px" viewBox="0 0 122 76" version="1.1" xmlns="http://www.w3.org/2000/svg" xmlns:xlink="http://www.w3.org/1999/xlink">
    <!-- Generator: Sketch 50.2 (55047) - http://www.bohemiancoding.com/sketch -->
    <title>选择图片组合样式_6</title>
    <desc>Created with Sketch.</desc>
    <defs></defs>
    <g id="页面装修-" stroke="none" stroke-width="1" fill="none" fill-rule="evenodd">
        <g id="选择图片组合式样2" transform="translate(-1268.000000, -418.000000)">
            <g id="轮播缩略图-copy-5_export" transform="translate(1268.000000, 418.000000)">
                <g id="轮播缩略图-copy-5">
                    <rect id="Rectangle-2" fill="#F5F5F5" x="42" y="0" width="80" height="76"></rect>
                    <text id="3" font-family="PingFangSC-Regular, PingFang SC" font-size="8" font-weight="normal" fill="#999999" fill-opacity="0.9">
                        <tspan x="115" y="10">3</tspan>
                    </text>
                    <rect id="Rectangle-2-Copy" fill="#F5F5F5" x="0" y="0" width="40" height="37"></rect>
                    <rect id="Rectangle-2-Copy-2" fill="#F5F5F5" x="0" y="39" width="40" height="37"></rect>
                    <text id="1" font-family="PingFangSC-Regular, PingFang SC" font-size="8" font-weight="normal" fill="#999999" fill-opacity="0.9">
                        <tspan x="33" y="10">1</tspan>
                    </text>
                    <text id="2" font-family="PingFangSC-Regular, PingFang SC" font-size="8" font-weight="normal" fill="#999999" fill-opacity="0.9">
                        <tspan x="33" y="49">2</tspan>
                    </text>
                    <g id="Group-3" transform="translate(71.000000, 30.000000)">
                        <rect id="Rectangle-11" fill="#D9D9D9" x="0" y="0" width="21.3333333" height="17" rx="2"></rect>
                        <ellipse id="Oval-2" fill="#FFFFFF" cx="8.24242424" cy="5.5" rx="1.45454545" ry="1.5"></ellipse>
                        <path d="M8.72727273,11 L4.84848485,11 L7.75757576,8.5 L9.60881543,10.0909091 L12.6060606,7 L16.4848485,11 L8.72727273,11 Z" id="Combined-Shape" fill="#FFFFFF"></path>
                    </g>
                    <g id="Group-3-Copy" transform="translate(9.000000, 10.000000)">
                        <rect id="Rectangle-11" fill="#D9D9D9" x="0" y="0" width="21.3333333" height="17" rx="2"></rect>
                        <ellipse id="Oval-2" fill="#FFFFFF" cx="8.24242424" cy="5.5" rx="1.45454545" ry="1.5"></ellipse>
                        <path d="M8.72727273,11 L4.84848485,11 L7.75757576,8.5 L9.60881543,10.0909091 L12.6060606,7 L16.4848485,11 L8.72727273,11 Z" id="Combined-Shape" fill="#FFFFFF"></path>
                    </g>
                    <g id="Group-3-Copy-2" transform="translate(9.000000, 49.000000)">
                        <rect id="Rectangle-11" fill="#D9D9D9" x="0" y="0" width="21.3333333" height="17" rx="2"></rect>
                        <ellipse id="Oval-2" fill="#FFFFFF" cx="8.24242424" cy="5.5" rx="1.45454545" ry="1.5"></ellipse>
                        <path d="M8.72727273,11 L4.84848485,11 L7.75757576,8.5 L9.60881543,10.0909091 L12.6060606,7 L16.4848485,11 L8.72727273,11 Z" id="Combined-Shape" fill="#FFFFFF"></path>
                    </g>
                </g>
            </g>
        </g>
    </g>
</svg>