<?xml version="1.0" standalone="no"?><!DOCTYPE svg PUBLIC "-//W3C//DTD SVG 1.1//EN" "http://www.w3.org/Graphics/SVG/1.1/DTD/svg11.dtd"><svg t="1600886232178" class="icon" viewBox="0 0 1142 1024" version="1.1" xmlns="http://www.w3.org/2000/svg" p-id="7243" xmlns:xlink="http://www.w3.org/1999/xlink" width="71.375" height="64"><defs><style type="text/css"></style></defs><path d="M1140.303252 842.511605l-86.94992-479.93517a153.936663 153.936663 0 0 0-151.552728-126.566909h-97.158983C802.257686 105.45726 698.547432 0 571.398187 0S340.538688 105.45726 338.154754 236.009526h-97.158984a153.936663 153.936663 0 0 0-151.552728 126.566909L2.474924 842.511605a154.027652 154.027652 0 0 0 151.552728 181.488395h834.722872a154.027652 154.027652 0 0 0 151.552728-181.488395zM571.398187 35.977395c107.368047 0 194.9185 89.315657 197.284237 200.050328H374.113951c2.365737-110.734672 89.952586-200.050329 197.284236-200.050328z m507.978248 909.662129a117.75909 117.75909 0 0 1-90.625911 42.383081H154.04585a118.068456 118.068456 0 0 1-116.175866-139.123511l86.94992-479.916972a117.995664 117.995664 0 0 1 116.175866-97.0134h660.804834a117.995664 117.995664 0 0 1 116.175867 97.0134l86.94992 479.916972a117.75909 117.75909 0 0 1-25.549956 96.74043z" fill="#777777" p-id="7244"></path><path d="M571.398187 659.621966c-79.288573 0-143.763995-66.422605-143.763995-148.058717a17.979598 17.979598 0 0 1 35.959197 0c0 61.873112 48.370215 112.09952 107.841194 112.09952s107.822996-50.2992 107.822997-112.09952a17.979598 17.979598 0 0 1 35.959196 0c-0.036396 81.636112-64.530016 148.058717-143.818589 148.058717z" fill="#2bb9c7" p-id="7245"></path></svg>
