<?xml version="1.0" encoding="UTF-8"?>
<svg width="120px" height="76px" viewBox="0 0 120 76" version="1.1" xmlns="http://www.w3.org/2000/svg" xmlns:xlink="http://www.w3.org/1999/xlink">
    <!-- Generator: Sketch 50.2 (55047) - http://www.bohemiancoding.com/sketch -->
    <title>缩略预览 copy@2x</title>
    <desc>Created with Sketch.</desc>
    <defs></defs>
    <g id="页面装修-" stroke="none" stroke-width="1" fill="none" fill-rule="evenodd">
        <g id="更换商品列表样式1" transform="translate(-1269.000000, -217.000000)">
            <g id="缩略预览-copy_export" transform="translate(1269.000000, 217.000000)">
                <g id="缩略预览-copy">
                    <g id="1">
                        <rect id="Rectangle-4-Copy-6" fill="#F5F5F5" x="0" y="0" width="36" height="36"></rect>
                        <g id="Group-3" transform="translate(9.000000, 12.000000)">
                            <rect id="Rectangle-11" fill="#D9D9D9" x="0" y="0" width="18" height="13" rx="2"></rect>
                            <circle id="Oval-2" fill="#FFFFFF" cx="6" cy="4" r="1"></circle>
                            <path d="M7.66666667,8 L4,8 L6.75,6.125 L8.5,7.31818182 L11.3333333,5 L15,8 L7.66666667,8 Z" id="Combined-Shape" fill="#FFFFFF"></path>
                        </g>
                        <rect id="Rectangle-12-Copy" fill="#D9D9D9" x="44" y="16" width="76" height="2"></rect>
                        <rect id="Rectangle-12-Copy-4" fill="#D9D9D9" x="44" y="11" width="56" height="2"></rect>
                        <rect id="Rectangle-12-Copy-2" fill="#D9D9D9" x="44" y="21" width="74" height="2"></rect>
                        <rect id="Rectangle-12-Copy-3" fill="#D9D9D9" x="44" y="26" width="59" height="2"></rect>
                    </g>
                    <g id="1-copy-2" transform="translate(0.000000, 40.000000)">
                        <rect id="Rectangle-4-Copy-6" fill="#F5F5F5" x="0" y="0" width="36" height="36"></rect>
                        <g id="Group-3" transform="translate(9.000000, 12.000000)">
                            <rect id="Rectangle-11" fill="#D9D9D9" x="0" y="0" width="18" height="13" rx="2"></rect>
                            <circle id="Oval-2" fill="#FFFFFF" cx="6" cy="4" r="1"></circle>
                            <path d="M7.66666667,8 L4,8 L6.75,6.125 L8.5,7.31818182 L11.3333333,5 L15,8 L7.66666667,8 Z" id="Combined-Shape" fill="#FFFFFF"></path>
                        </g>
                        <rect id="Rectangle-12-Copy" fill="#D9D9D9" x="44" y="16" width="76" height="2"></rect>
                        <rect id="Rectangle-12-Copy-4" fill="#D9D9D9" x="44" y="11" width="56" height="2"></rect>
                        <rect id="Rectangle-12-Copy-2" fill="#D9D9D9" x="44" y="21" width="74" height="2"></rect>
                        <rect id="Rectangle-12-Copy-3" fill="#D9D9D9" x="44" y="26" width="59" height="2"></rect>
                    </g>
                </g>
            </g>
        </g>
    </g>
</svg>