<?xml version="1.0" encoding="UTF-8"?>
<svg width="122px" height="74px" viewBox="0 0 122 74" version="1.1" xmlns="http://www.w3.org/2000/svg" xmlns:xlink="http://www.w3.org/1999/xlink">
    <!-- Generator: Sketch 50.2 (55047) - http://www.bohemiancoding.com/sketch -->
    <title>缩略预览_export@2x</title>
    <desc>Created with Sketch.</desc>
    <defs></defs>
    <g id="页面装修-0926" stroke="none" stroke-width="1" fill="none" fill-rule="evenodd">
        <g id="商品列表缩略图修改" transform="translate(-1125.000000, -217.000000)">
            <g id="缩略预览_export_export" transform="translate(1125.000000, 217.000000)">
                <g id="缩略预览_export">
                    <g id="缩略预览">
                        <g id="1">
                            <rect id="Rectangle-4-Copy-6" fill="#F5F5F5" x="0" y="0" width="59" height="59"></rect>
                            <g id="Group-3" transform="translate(18.000000, 21.000000)">
                                <rect id="Rectangle-11" fill="#D9D9D9" x="0" y="0" width="24" height="18" rx="2"></rect>
                                <circle id="Oval-2" fill="#FFFFFF" cx="7.5" cy="5.5" r="1.5"></circle>
                                <path d="M10,11 L5,11 L8.75,8.5 L11.1363636,10.0909091 L15,7 L20,11 L10,11 Z" id="Combined-Shape" fill="#FFFFFF"></path>
                            </g>
                            <rect id="Rectangle-12-Copy" fill="#D9D9D9" x="4" y="62" width="52" height="2"></rect>
                            <rect id="Rectangle-12-Copy-5" fill="#D9D9D9" x="67" y="62" width="52" height="2"></rect>
                            <rect id="Rectangle-12-Copy-2" fill="#D9D9D9" x="12" y="67" width="36" height="2"></rect>
                            <rect id="Rectangle-12-Copy-6" fill="#D9D9D9" x="75" y="67" width="36" height="2"></rect>
                            <rect id="Rectangle-12-Copy-3" fill="#D9D9D9" x="20" y="72" width="20" height="2"></rect>
                            <rect id="Rectangle-12-Copy-7" fill="#D9D9D9" x="83" y="72" width="20" height="2"></rect>
                        </g>
                        <g id="1-copy" transform="translate(63.000000, 0.000000)">
                            <rect id="Rectangle-4-Copy-6" fill="#F5F5F5" x="0" y="0" width="59" height="59"></rect>
                            <g id="Group-3" transform="translate(18.000000, 21.000000)">
                                <rect id="Rectangle-11" fill="#D9D9D9" x="0" y="0" width="24" height="18" rx="2"></rect>
                                <circle id="Oval-2" fill="#FFFFFF" cx="7.5" cy="5.5" r="1.5"></circle>
                                <path d="M10,11 L5,11 L8.75,8.5 L11.1363636,10.0909091 L15,7 L20,11 L10,11 Z" id="Combined-Shape" fill="#FFFFFF"></path>
                            </g>
                        </g>
                    </g>
                </g>
            </g>
        </g>
    </g>
</svg>